<svg width="599" height="640" viewBox="0 0 599 640" fill="none" xmlns="http://www.w3.org/2000/svg">
<path d="M89.8459 555.649C35.2576 504.852 4.27423 436.283 3.34407 364.645L299.026 364.645L594.707 364.645C593.777 436.283 562.793 504.852 508.205 555.649C452.765 607.239 377.525 636.26 299.025 636.26C220.526 636.26 145.286 607.239 89.8459 555.649Z" fill="#FAFFFF" stroke="black" stroke-width="6.64501"/>
<path d="M508.205 83.9327C562.794 134.73 593.777 203.299 594.707 274.937L299.026 274.937L3.34432 274.937C4.2745 203.299 35.2579 134.73 89.8462 83.9327C145.286 32.3429 220.526 3.3225 299.026 3.32251C377.525 3.32251 452.766 32.343 508.205 83.9327Z" fill="#120EC9" stroke="black" stroke-width="6.64501"/>
<path d="M438.386 39.9504C420.886 102.45 412.386 118.45 339.386 180.45C358.386 214.95 379.886 236.45 412.386 249.95C484.886 199.95 494.388 191.91 531.385 118.45C538.886 111.45 483.386 58.9503 438.386 39.9504Z" fill="#C90E0E"/>
<path d="M160.526 39.8734C178.026 102.373 186.526 118.373 259.526 180.373C240.526 214.873 219.026 236.373 186.526 249.873C114.026 199.873 104.524 191.833 67.5267 118.373C60.0258 111.373 115.526 58.8734 160.526 39.8734Z" fill="#C90E0E"/>
<path d="M8.3064 286.566C8.3064 281.979 12.0252 278.26 16.6127 278.26H581.439C586.026 278.26 589.745 281.979 589.745 286.566V353.016C589.745 357.604 586.026 361.322 581.439 361.322H16.6127C12.0253 361.322 8.3064 357.604 8.3064 353.016V286.566Z" fill="#181818"/>
<path d="M8.3064 286.566C8.3064 281.979 12.0252 278.26 16.6127 278.26H581.439C586.026 278.26 589.745 281.979 589.745 286.566V353.016C589.745 357.604 586.026 361.322 581.439 361.322H16.6127C12.0253 361.322 8.3064 357.604 8.3064 353.016V286.566Z" stroke="black"/>
<circle cx="298.61" cy="320.206" r="93.4455" fill="#181818"/>
<circle cx="298.61" cy="320.206" r="71.4339" fill="#FAFFFF" stroke="black" stroke-width="2.49188"/>
<g filter="url(#filter0_d_10_271)">
<circle cx="298.61" cy="320.206" r="51.9142" fill="#FAFFFF"/>
<circle cx="298.61" cy="320.206" r="50.6682" stroke="black" stroke-width="2.49188"/>
</g>
<defs>
<filter id="filter0_d_10_271" x="243.374" y="268.292" width="110.473" height="110.473" filterUnits="userSpaceOnUse" color-interpolation-filters="sRGB">
<feFlood flood-opacity="0" result="BackgroundImageFix"/>
<feColorMatrix in="SourceAlpha" type="matrix" values="0 0 0 0 0 0 0 0 0 0 0 0 0 0 0 0 0 0 127 0" result="hardAlpha"/>
<feOffset dy="3.32251"/>
<feGaussianBlur stdDeviation="1.66125"/>
<feComposite in2="hardAlpha" operator="out"/>
<feColorMatrix type="matrix" values="0 0 0 0 0 0 0 0 0 0 0 0 0 0 0 0 0 0 0.25 0"/>
<feBlend mode="normal" in2="BackgroundImageFix" result="effect1_dropShadow_10_271"/>
<feBlend mode="normal" in="SourceGraphic" in2="effect1_dropShadow_10_271" result="shape"/>
</filter>
</defs>
</svg>
