<svg width="720" height="770" viewBox="0 0 720 770" fill="none" xmlns="http://www.w3.org/2000/svg">
<g clip-path="url(#clip0_25_3)">
<path d="M108.166 668.952C42.447 607.797 5.14582 525.246 4.026 439H360H715.974C714.854 525.246 677.553 607.797 611.833 668.953C545.089 731.062 454.506 766 360 766C265.494 766 174.911 731.062 108.166 668.952Z" fill="#FAFFFF" stroke="black" stroke-width="8"/>
<path d="M611.834 101.048C677.553 162.203 714.854 244.754 715.974 331H360H4.02612C5.14597 244.754 42.4472 162.203 108.167 101.048C174.911 38.9382 265.494 4.00024 360 4.00024C454.506 4.00025 545.089 38.9383 611.834 101.048Z" fill="#217D36"/>
<path d="M611.834 101.048C677.553 162.203 714.854 244.754 715.974 331H360H4.02612C5.14597 244.754 42.4472 162.203 108.167 101.048C174.911 38.9382 265.494 4.00024 360 4.00024C454.506 4.00025 545.089 38.9383 611.834 101.048Z" fill="#217D36"/>
<path d="M611.834 101.048C677.553 162.203 714.854 244.754 715.974 331H360H4.02612C5.14597 244.754 42.4472 162.203 108.167 101.048C174.911 38.9382 265.494 4.00024 360 4.00024C454.506 4.00025 545.089 38.9383 611.834 101.048Z" stroke="black" stroke-width="8"/>
<path d="M611.834 101.048C677.553 162.203 714.854 244.754 715.974 331H360H4.02612C5.14597 244.754 42.4472 162.203 108.167 101.048C174.911 38.9382 265.494 4.00024 360 4.00024C454.506 4.00025 545.089 38.9383 611.834 101.048Z" stroke="black" stroke-width="8"/>
<path d="M224 164C202 150 170 58 170 58L271 14C271 14 315 58 353 58C391 58 381 150 343 192C305 234 246 178 224 164Z" fill="#A8811B"/>
<path d="M71.1756 188.698C15.7437 148.005 111.176 177.698 123.176 132.698C135.176 87.6984 174.929 158.612 208.176 177.698C241.422 196.785 181.826 288.983 148.176 250.698C78.7603 268.191 54.7997 262.143 71.1756 188.698Z" fill="#2BAA47" fill-opacity="0.81"/>
<path d="M377.176 181.698C321.744 141.005 417.176 170.698 429.176 125.698C441.176 80.6984 480.929 151.612 514.176 170.698C547.422 189.785 487.826 281.983 454.176 243.698C384.76 261.191 360.8 255.143 377.176 181.698Z" fill="#2BAA47" fill-opacity="0.58"/>
<path d="M600.164 330C496.951 294.103 433.046 273.74 486.324 244C500.112 244.616 512.151 244.366 522.576 243.278C518.712 235.833 515.828 226.155 514.285 214C504 133 518.658 110.6 486.324 30C514.186 37.4128 535.533 47.4937 560.066 64.1014C561.222 64.6252 562.6 65.5601 564.253 66.977C578.16 76.6615 593.23 88.4457 611.148 103L612.697 127.814C616.559 133.136 620.683 138.856 625.087 145C719 276 681.025 300.628 687 330H600.164Z" fill="#E6B946" fill-opacity="0.85"/>
<path d="M87.8872 125C179.078 124.642 112.386 141.432 159.467 178.372C199.736 142.119 216.464 151.566 215.36 209.829C278.424 247.155 266.872 286.459 209.03 280.707C207.035 295.737 204.592 312.163 201.726 330H8V291C49.1495 266.86 77.9089 261.248 103.86 237.969L37.9577 199L87.8872 125Z" fill="#E6B946" fill-opacity="0.85"/>
<path d="M342.527 116C493.875 214.685 470.349 152.812 397.45 9H300.587C233.148 18.1016 218.293 29.0311 260.643 66C256.54 120.959 269.615 136.672 342.527 116Z" fill="#E6B946" fill-opacity="0.85"/>
<path d="M431.402 199C415.229 284.933 460.991 293.833 514.285 330H452.372C364.797 273.518 332.956 244.662 342.527 204C370.629 155.564 389.067 147.282 431.402 199Z" fill="#E6B946" fill-opacity="0.85"/>
<path d="M146.158 213.683C155.629 214.044 173.304 222.387 189.5 234.083C191.789 234.17 194.162 234.235 196.625 234.277C233.611 234.901 252.619 254.903 258.864 281.417C272.42 279.523 300.744 293.594 349.041 327.104C415.153 309.974 426.569 324.533 421.63 374.335C458.921 408.848 445.299 418.437 384.377 425.185L297.17 423.01C279.996 386.611 266.051 355.936 257.657 332.533C251.194 359.959 236.487 386.465 217.631 401.949C190.465 393.929 170.343 383.204 146.058 364.951C153.701 381.532 163.172 400.481 172.216 421.162C154.172 439.364 127.249 425.056 58.2551 349.223C31.2199 296.147 73.046 275.368 77.6701 223.83C82.2943 172.291 120.318 212.697 146.158 213.683Z" fill="#A8811B" fill-opacity="0.88"/>
<path d="M578.501 324.652C482.417 322.636 551.564 350.195 454.028 301.11C356.492 252.025 397.226 194.572 502.183 245.989L541.841 250.055C543.838 227.817 548.322 198.691 555.088 162.117C580.109 128.042 516.521 102.61 543.621 74.8508L604.018 93.2812L655.067 140.337L654.183 175.743C606.25 202.508 655.001 209.473 625.12 250.116C622.646 252.782 620.231 255.36 617.873 257.849L625.129 258.593C686.243 287.638 688.615 302.617 578.501 324.652Z" fill="#A8811B" fill-opacity="0.88"/>
<path d="M270.906 249.756C287.413 172.105 257.204 140.342 210.042 106.31L230.106 90.9184C307.671 144.162 335.685 171.075 326.147 207.775C299.75 251.116 307.849 297.659 270.906 249.756Z" fill="#A8811B" fill-opacity="0.88"/>
<path d="M611.834 101.048C677.553 162.203 714.854 244.754 715.974 331H360H4.02612C5.14597 244.754 42.4472 162.203 108.167 101.048C174.911 38.9382 265.494 4.00024 360 4.00024C454.506 4.00025 545.089 38.9383 611.834 101.048Z" stroke="black" stroke-width="8"/>
<path d="M10 345C10 339.477 14.4772 335 20 335H700C705.523 335 710 339.477 710 345V425C710 430.523 705.523 435 700 435H20C14.4771 435 10 430.523 10 425V345Z" fill="#181818"/>
<path d="M10 345C10 339.477 14.4772 335 20 335H700C705.523 335 710 339.477 710 345V425C710 430.523 705.523 435 700 435H20C14.4771 435 10 430.523 10 425V345Z" stroke="black"/>
<path d="M359.5 498C421.632 498 472 447.632 472 385.5C472 323.368 421.632 273 359.5 273C297.368 273 247 323.368 247 385.5C247 447.632 297.368 498 359.5 498Z" fill="#181818"/>
<path d="M359.5 471.5C406.996 471.5 445.5 432.996 445.5 385.5C445.5 338.004 406.996 299.5 359.5 299.5C312.004 299.5 273.5 338.004 273.5 385.5C273.5 432.996 312.004 471.5 359.5 471.5Z" fill="#FAFFFF" stroke="black" stroke-width="3"/>
<g filter="url(#filter0_i_25_3)">
<path d="M359.5 448C394.018 448 422 420.018 422 385.5C422 350.982 394.018 323 359.5 323C324.982 323 297 350.982 297 385.5C297 420.018 324.982 448 359.5 448Z" fill="#FAFFFF"/>
<path d="M359.5 446.5C393.189 446.5 420.5 419.189 420.5 385.5C420.5 351.811 393.189 324.5 359.5 324.5C325.811 324.5 298.5 351.811 298.5 385.5C298.5 419.189 325.811 446.5 359.5 446.5Z" stroke="black" stroke-width="3"/>
</g>
</g>
<defs>
<filter id="filter0_i_25_3" x="297" y="323" width="125" height="129" filterUnits="userSpaceOnUse" color-interpolation-filters="sRGB">
<feFlood flood-opacity="0" result="BackgroundImageFix"/>
<feBlend mode="normal" in="SourceGraphic" in2="BackgroundImageFix" result="shape"/>
<feColorMatrix in="SourceAlpha" type="matrix" values="0 0 0 0 0 0 0 0 0 0 0 0 0 0 0 0 0 0 127 0" result="hardAlpha"/>
<feOffset dy="4"/>
<feGaussianBlur stdDeviation="2"/>
<feComposite in2="hardAlpha" operator="arithmetic" k2="-1" k3="1"/>
<feColorMatrix type="matrix" values="0 0 0 0 0 0 0 0 0 0 0 0 0 0 0 0 0 0 0.25 0"/>
<feBlend mode="normal" in2="shape" result="effect1_innerShadow_25_3"/>
</filter>
<clipPath id="clip0_25_3">
<rect width="720" height="770" fill="white"/>
</clipPath>
</defs>
</svg>
